# xmcd
#
# Track frame offsets:
#	150
#	11129
#	23332
#	39346
#	48771
#	67620
#	79933
#	95265
#	105294
#	118630
#	130906
#	141062
#	151243
#	164951
#	175027
#	189048
#	202247
#	216257
#	230173
#	242139
#	255396
#	266316
#
# Disc length: 3753 seconds
#
# Revision: 0
# Processed by: cddbd v1.5.1PL2 Copyright (c) Steve Scherf et al.
# Submitted via: audiograbber 1.83.01
#
DISCID=1b0ea716
DTITLE=Taj Mahal and Ry Cooder - The Rising Sons
DYEAR=1992
DGENRE=Blues-Rock
TTITLE0=Taj Mahal and Ry Cooder - Statesboro Blues
TTITLE1=Taj Mahal and Ry Cooder - If The River Was Whiskey
TTITLE2=Taj Mahal and Ry Cooder - By And By
TTITLE3=Taj Mahal and Ry Cooder - Candy Man
TTITLE4=Taj Mahal and Ry Cooder - 2:10 Train
TTITLE5=Taj Mahal and Ry Cooder - Let The Good Times Roll
TTITLE6=Taj Mahal and Ry Cooder - .44 Blues
TTITLE7=Taj Mahal and Ry Cooder - 11th Street Overcrossing
TTITLE8=Taj Mahal and Ry Cooder - Corrin, Corrina
TTITLE9=Taj Mahal and Ry Cooder - Tulsa County
TTITLE10=Taj Mahal and Ry Cooder - Walkin' Down The Line
TTITLE11=Taj Mahal and Ry Cooder - The Girl With Green Eyes
TTITLE12=Taj Mahal and Ry Cooder - Sunny's Dream
TTITLE13=Taj Mahal and Ry Cooder - Spanish Lace Blues
TTITLE14=Taj Mahal and Ry Cooder - The Devil's Got My Woman
TTITLE15=Taj Mahal and Ry Cooder - Take A Giant Step
TTITLE16=Taj Mahal and Ry Cooder - Flyin' So High
TTITLE17=Taj Mahal and Ry Cooder - Dust My Broom
TTITLE18=Taj Mahal and Ry Cooder - Last Fair Deal Gone Down
TTITLE19=Taj Mahal and Ry Cooder - Baby, What You Want Me T
TTITLE20=Taj Mahal and Ry Cooder - Statesboro Blues (Alt.)
TTITLE21=Taj Mahal and Ry Cooder - I Got A Little
EXTD=
EXTT0=
EXTT1=
EXTT2=
EXTT3=
EXTT4=
EXTT5=
EXTT6=
EXTT7=
EXTT8=
EXTT9=
EXTT10=
EXTT11=
EXTT12=
EXTT13=
EXTT14=
EXTT15=
EXTT16=
EXTT17=
EXTT18=
EXTT19=
EXTT20=
EXTT21=
PLAYORDER=
